<svg width="18" height="18" viewBox="0 0 18 18" fill="none" xmlns="http://www.w3.org/2000/svg">
<g clip-path="url(#clip0_1494_175)">
<path d="M15.0502 7.35005C15.0502 12.25 8.7502 16.45 8.7502 16.45C8.7502 16.45 2.4502 12.25 2.4502 7.35005C2.4502 5.67918 3.11394 4.07676 4.29542 2.89528C5.4769 1.7138 7.07933 1.05005 8.7502 1.05005C10.4211 1.05005 12.0235 1.7138 13.205 2.89528C14.3864 4.07676 15.0502 5.67918 15.0502 7.35005Z" stroke="#3F742F" stroke-linecap="round" stroke-linejoin="round"/>
<path d="M8.74941 9.45C9.90921 9.45 10.8494 8.5098 10.8494 7.35C10.8494 6.1902 9.90921 5.25 8.74941 5.25C7.58962 5.25 6.64941 6.1902 6.64941 7.35C6.64941 8.5098 7.58962 9.45 8.74941 9.45Z" stroke="#3F742F" stroke-linecap="round" stroke-linejoin="round"/>
</g>
<defs>
<clipPath id="clip0_1494_175">
<rect width="16.8" height="16.8" fill="white" transform="translate(0.350586 0.349976)"/>
</clipPath>
</defs>
</svg>
