<svg width="35" height="35" viewBox="0 0 35 35" fill="none" xmlns="http://www.w3.org/2000/svg">
<path d="M30.1004 14.7C30.1004 24.5 17.5004 32.9 17.5004 32.9C17.5004 32.9 4.90039 24.5 4.90039 14.7C4.90039 11.3582 6.22789 8.15339 8.59085 5.79043C10.9538 3.42747 14.1587 2.09998 17.5004 2.09998C20.8421 2.09998 24.047 3.42747 26.4099 5.79043C28.7729 8.15339 30.1004 11.3582 30.1004 14.7Z" stroke="#3F742F" stroke-width="1.4" stroke-linecap="round" stroke-linejoin="round"/>
<path d="M17.4998 18.9C19.8194 18.9 21.6998 17.0196 21.6998 14.7C21.6998 12.3804 19.8194 10.5 17.4998 10.5C15.1802 10.5 13.2998 12.3804 13.2998 14.7C13.2998 17.0196 15.1802 18.9 17.4998 18.9Z" stroke="#3F742F" stroke-width="1.4" stroke-linecap="round" stroke-linejoin="round"/>
</svg>
